<?xml version="1.0" encoding="UTF-8" standalone="no"?>
<!-- Created with Inkscape (http://www.inkscape.org/) -->

<svg
   xmlns:dc="http://purl.org/dc/elements/1.1/"
   xmlns:cc="http://creativecommons.org/ns#"
   xmlns:rdf="http://www.w3.org/1999/02/22-rdf-syntax-ns#"
   xmlns:svg="http://www.w3.org/2000/svg"
   xmlns="http://www.w3.org/2000/svg"
   xmlns:sodipodi="http://sodipodi.sourceforge.net/DTD/sodipodi-0.dtd"
   xmlns:inkscape="http://www.inkscape.org/namespaces/inkscape"
   width="500"
   height="500"
   id="svg2"
   version="1.1"
   inkscape:version="0.48.2 r9819"
   sodipodi:docname="logo.svg">
  <defs
     id="defs4">
    <linearGradient
       id="linearGradient3800">
      <stop
         style="stop-color:#3f837e;stop-opacity:1;"
         offset="0"
         id="stop3802" />
      <stop
         id="stop3808"
         offset="0.5"
         style="stop-color:#000000;stop-opacity:0.49803922;" />
      <stop
         style="stop-color:#000000;stop-opacity:0;"
         offset="1"
         id="stop3804" />
    </linearGradient>
    <linearGradient
       id="linearGradient3788">
      <stop
         style="stop-color:#000000;stop-opacity:1;"
         offset="0"
         id="stop3790" />
      <stop
         style="stop-color:#000000;stop-opacity:0;"
         offset="1"
         id="stop3792" />
    </linearGradient>
  </defs>
  <sodipodi:namedview
     id="base"
     pagecolor="#ffffff"
     bordercolor="#666666"
     borderopacity="1.0"
     inkscape:pageopacity="0.0"
     inkscape:pageshadow="2"
     inkscape:zoom="0.72302041"
     inkscape:cx="71.152517"
     inkscape:cy="288.05166"
     inkscape:document-units="px"
     inkscape:current-layer="layer1"
     showgrid="false"
     inkscape:window-width="1241"
     inkscape:window-height="719"
     inkscape:window-x="223"
     inkscape:window-y="9"
     inkscape:window-maximized="0" />
  <metadata
     id="metadata7">
    <rdf:RDF>
      <cc:Work
         rdf:about="">
        <dc:format>image/svg+xml</dc:format>
        <dc:type
           rdf:resource="http://purl.org/dc/dcmitype/StillImage" />
        <dc:title></dc:title>
      </cc:Work>
    </rdf:RDF>
  </metadata>
  <g
     inkscape:label="Layer 1"
     inkscape:groupmode="layer"
     id="layer1"
     transform="translate(0,-552.36218)">
    <path
       style="fill:#afceeb;fill-opacity:1"
       d="m 106.25322,655.32651 c -11.673601,0 -21.172799,8.91589 -21.950566,20.27418 l 22.550186,0 0,15.50253 -4.47578,0 0,33.76203 11.17873,0 0,-10.39158 11.28579,0 0,25.91532 -39.960713,0 c 2.342063,9.54152 10.996629,16.58411 21.372353,16.58411 l 63.02486,0 c 12.18601,0 21.99339,-9.71217 21.99339,-21.7799 l 0,-3.32954 c -0.65565,1.01491 -1.37148,1.97599 -2.14152,2.88419 -3.7838,4.44024 -8.99455,6.65909 -15.63308,6.65909 -9.0629,0 -15.75869,-3.24457 -20.10886,-9.73415 -4.37284,-6.45851 -6.57446,-14.35214 -6.57446,-23.66735 0,-9.37723 2.14234,-17.3489 6.42456,-23.90063 4.2822,-6.55161 9.86134,-9.81891 16.70384,-9.81898 5.55099,7e-5 10.06655,1.88409 13.5558,5.64115 l 0,-4.32629 7.73089,0 c -0.77777,-11.35829 -10.27696,-20.27418 -21.95056,-20.27418 l -63.02486,0 z m 68.74271,34.41945 c -5.12055,4e-5 -7.68806,6.0536 -7.68804,18.13224 -2e-5,12.10975 2.66463,18.15346 7.96644,18.15345 4.64468,10e-6 7.55794,-4.73844 8.75881,-14.20889 l 7.23833,3.4992 0,-16.07513 -8.22343,0 c -0.61178,-2.94977 -1.63377,-5.26938 -3.08378,-6.9772 -1.45011,-1.67668 -3.11047,-2.52363 -4.96833,-2.52367 z"
       id="rect2985"
       inkscape:connector-curvature="0" />
    <path
       inkscape:connector-curvature="0"
       id="path2992"
       d="m 102.18587,657.9971 c -11.673596,0 -21.172793,8.9159 -21.950561,20.27418 l 22.550181,0 0,15.50254 -4.47577,0 0,33.76202 11.17872,0 0,-10.39158 11.28579,0 0,25.91532 -39.960714,0 c 2.34207,9.54152 10.996628,16.58411 21.372354,16.58411 l 63.02485,0 c 12.18601,0 21.99338,-9.71217 21.99338,-21.7799 l 0,-3.32954 c -0.65564,1.01492 -1.37148,1.97599 -2.14151,2.88419 -3.7838,4.44024 -8.99456,6.65909 -15.63308,6.65909 -9.0629,0 -15.75869,-3.24457 -20.10885,-9.73415 -4.37285,-6.45851 -6.57446,-14.35214 -6.57446,-23.66734 0,-9.37724 2.14232,-17.34891 6.42455,-23.90063 4.28219,-6.55162 9.86134,-9.81892 16.70383,-9.81898 5.55099,6e-5 10.06657,1.88408 13.55582,5.64114 l 0,-4.32629 7.73088,0 C 186.38352,666.913 176.88431,657.9971 165.21072,657.9971 l -63.02485,0 z m 68.7427,34.41945 c -5.12056,5e-5 -7.68807,6.0536 -7.68805,18.13224 -2e-5,12.10976 2.66463,18.15346 7.96644,18.15345 4.6447,1e-5 7.55794,-4.73844 8.75882,-14.20889 l 7.23832,3.4992 0,-16.07513 -8.22342,0 c -0.61178,-2.94976 -1.63376,-5.26937 -3.08379,-6.9772 -1.4501,-1.67668 -3.11047,-2.52362 -4.96832,-2.52367 z"
       style="fill:#092950;fill-opacity:1" />
    <text
       xml:space="preserve"
       style="font-size:40px;font-style:normal;font-weight:normal;line-height:100%;letter-spacing:0px;word-spacing:0px;fill:#4d4d4d;fill-opacity:1;stroke:none;font-family:Sans"
       x="191.55278"
       y="703.62738"
       id="text3781"
       sodipodi:linespacing="100%"><tspan
         sodipodi:role="line"
         id="tspan3783"
         x="191.55278"
         y="703.62738"
         dx="10"
         style="font-size:40px;font-style:normal;font-variant:normal;font-weight:300;font-stretch:normal;text-align:start;line-height:100%;letter-spacing:38.11999893000000128px;word-spacing:0px;writing-mode:lr-tb;text-anchor:start;fill:#4d4d4d;font-family:Myanmar MN;-inkscape-font-specification:Myanmar MN Light;fill-opacity:1">local</tspan></text>
    <text
       xml:space="preserve"
       style="font-size:37.17007446000000215px;font-style:normal;font-weight:normal;line-height:125%;letter-spacing:0px;word-spacing:0px;fill:#4d4d4d;fill-opacity:1;stroke:none;font-family:Sans"
       x="239.68173"
       y="620.97198"
       id="text3785"
       sodipodi:linespacing="125%"
       transform="scale(0.83208409,1.2018016)"><tspan
         sodipodi:role="line"
         id="tspan3787"
         x="239.68173"
         y="620.97198"
         style="fill:#4d4d4d;font-family:Rockwell Extra Bold;-inkscape-font-specification:Rockwell Extra Bold;fill-opacity:1">collaborative</tspan></text>
    <path
       inkscape:connector-curvature="0"
       id="path3884"
       d="m 95.263613,803.85592 c -4.103564,0 -7.442772,3.13416 -7.716177,7.12688 l 7.926959,0 0,5.44954 -1.57335,0 0,11.8682 3.929608,0 0,-3.6529 3.967237,0 0,9.10989 -14.047197,0 c 0.823294,3.35408 3.865593,5.82973 7.51292,5.82973 l 22.154827,0 c 4.28369,0 7.73123,-3.41407 7.73123,-7.65618 l 0,-1.17042 c -0.23048,0.35677 -0.48211,0.69461 -0.7528,1.01386 -1.3301,1.56086 -3.1618,2.34084 -5.49542,2.34084 -3.18583,0 -5.53957,-1.14054 -7.06877,-3.4218 -1.53716,-2.27033 -2.31108,-5.04513 -2.31108,-8.31966 0,-3.29634 0.75308,-6.09859 2.25839,-8.40168 1.5053,-2.30306 3.46651,-3.4516 5.87182,-3.45162 1.95131,2e-5 3.53865,0.66231 4.76521,1.983 l 0,-1.5208 2.7176,0 c -0.27341,-3.99272 -3.61261,-7.12688 -7.71618,-7.12688 l -22.154827,0 z m 24.164797,12.0993 c -1.8,2e-5 -2.70254,2.128 -2.70254,6.37394 0,4.25689 0.93669,6.38141 2.8004,6.3814 1.63273,10e-6 2.65681,-1.66568 3.07895,-4.99478 l 2.54445,1.23005 0,-5.65081 -2.89074,0 c -0.21505,-1.03692 -0.57431,-1.85232 -1.08403,-2.45266 -0.50975,-0.5894 -1.0934,-0.88712 -1.74649,-0.88714 z"
       style="fill:#afceeb;fill-opacity:1"
       inkscape:export-filename="/Users/santoshsankar/Documents/programming/Bootstrap/sitepoint/src/img/logo.png"
       inkscape:export-xdpi="90"
       inkscape:export-ydpi="90" />
    <path
       style="fill:#092950;fill-opacity:1"
       d="m 93.833837,804.7947 c -4.103563,0 -7.44277,3.13416 -7.716175,7.12688 l 7.926957,0 0,5.44954 -1.573346,0 0,11.8682 3.929603,0 0,-3.6529 3.967244,0 0,9.10989 -14.047204,0 c 0.823297,3.35409 3.865593,5.82973 7.512921,5.82973 l 22.154833,0 c 4.28368,0 7.73122,-3.41407 7.73122,-7.65618 l 0,-1.17042 c -0.23047,0.35677 -0.48211,0.69461 -0.75279,1.01387 -1.33011,1.56085 -3.16182,2.34084 -5.49543,2.34084 -3.18584,0 -5.53957,-1.14056 -7.06876,-3.4218 -1.53717,-2.27033 -2.31109,-5.04515 -2.31109,-8.31967 0,-3.29634 0.75308,-6.09858 2.25839,-8.40168 1.5053,-2.30306 3.46651,-3.4516 5.87181,-3.45162 1.95132,2e-5 3.53866,0.6623 4.76522,1.98301 l 0,-1.52081 2.7176,0 c -0.27341,-3.99272 -3.61261,-7.12688 -7.71617,-7.12688 l -22.154833,0 z m 24.164793,12.09931 c -1.8,10e-6 -2.70255,2.12799 -2.70254,6.37393 -1e-5,4.25689 0.93668,6.3814 2.8004,6.3814 1.63273,0 2.65681,-1.66568 3.07895,-4.99479 l 2.54445,1.23006 0,-5.65081 -2.89074,0 c -0.21506,-1.03692 -0.57431,-1.85232 -1.08403,-2.45266 -0.50974,-0.5894 -1.09341,-0.88712 -1.74649,-0.88713 z"
       id="path3886"
       inkscape:connector-curvature="0"
       inkscape:export-filename="/Users/santoshsankar/Documents/programming/Bootstrap/sitepoint/src/img/logo.png"
       inkscape:export-xdpi="90"
       inkscape:export-ydpi="90" />
    <text
       sodipodi:linespacing="100%"
       id="text3888"
       y="820.8349"
       x="125.24857"
       style="font-size:14.06101036px;font-style:normal;font-weight:normal;line-height:100%;letter-spacing:0px;word-spacing:0px;fill:#4d4d4d;fill-opacity:1;stroke:none;font-family:Sans"
       xml:space="preserve"
       inkscape:export-filename="/Users/santoshsankar/Documents/programming/Bootstrap/sitepoint/src/img/logo.png"
       inkscape:export-xdpi="90"
       inkscape:export-ydpi="90"><tspan
         style="font-size:14.06101036px;font-style:normal;font-variant:normal;font-weight:300;font-stretch:normal;text-align:start;line-height:100%;letter-spacing:13.40014172px;word-spacing:0px;writing-mode:lr-tb;text-anchor:start;fill:#4d4d4d;fill-opacity:1;font-family:Myanmar MN;-inkscape-font-specification:Myanmar MN Light"
         dx="3.5152526"
         y="820.8349"
         x="125.24857"
         id="tspan3890"
         sodipodi:role="line">local</tspan></text>
    <text
       transform="scale(0.83208409,1.2018016)"
       sodipodi:linespacing="125%"
       id="text3892"
       y="695.48096"
       x="153.85402"
       style="font-size:13.06621933px;font-style:normal;font-weight:normal;line-height:125%;letter-spacing:0px;word-spacing:0px;fill:#4d4d4d;fill-opacity:1;stroke:none;font-family:Sans"
       xml:space="preserve"
       inkscape:export-filename="/Users/santoshsankar/Documents/programming/Bootstrap/sitepoint/src/img/logo.png"
       inkscape:export-xdpi="90"
       inkscape:export-ydpi="90"><tspan
         style="fill:#4d4d4d;fill-opacity:1;font-family:Rockwell Extra Bold;-inkscape-font-specification:Rockwell Extra Bold"
         y="695.48096"
         x="153.85402"
         id="tspan3894"
         sodipodi:role="line">collaborative</tspan></text>
    <path
       inkscape:export-ydpi="90"
       inkscape:export-xdpi="90"
       inkscape:export-filename="/Users/santoshsankar/Documents/programming/Bootstrap/sitepoint/src/img/logo.png"
       style="fill:#afceeb;fill-opacity:1"
       d="m 96.986549,862.67945 c -4.876603,0 -8.844859,3.72458 -9.169769,8.46946 l 9.420258,0 0,6.47614 -1.869741,0 0,14.10395 4.669873,0 0,-4.34104 4.7146,0 0,10.82604 -16.693443,0 c 0.978388,3.98592 4.593803,6.92794 8.928222,6.92794 l 26.328401,0 c 5.09067,0 9.18766,-4.05722 9.18766,-9.09847 l 0,-1.3909 c -0.2739,0.42398 -0.57293,0.82546 -0.89461,1.20485 -1.58067,1.8549 -3.75743,2.78181 -6.53066,2.78181 -3.78599,0 -6.58313,-1.35539 -8.4004,-4.0664 -1.82674,-2.69802 -2.74645,-5.99555 -2.74645,-9.88694 0,-3.91731 0.89495,-7.24746 2.68383,-9.98441 1.78887,-2.73691 4.11954,-4.10182 6.97797,-4.10184 2.3189,2e-5 4.20527,0.78708 5.66289,2.35656 l 0,-1.80729 3.22955,0 c -0.32492,-4.74488 -4.29317,-8.46946 -9.16978,-8.46946 l -26.328401,0 z m 28.717021,14.37859 c -2.13909,3e-5 -3.21165,2.52888 -3.21165,7.57468 0,5.05882 1.11314,7.58356 3.32794,7.58355 1.94031,10e-6 3.15731,-1.97947 3.65897,-5.93571 l 3.02378,1.46177 0,-6.71533 -3.4353,0 c -0.25556,-1.23225 -0.6825,-2.20126 -1.28825,-2.91469 -0.60577,-0.70044 -1.29937,-1.05424 -2.07549,-1.05427 z"
       id="path3896"
       inkscape:connector-curvature="0" />
    <path
       inkscape:export-ydpi="90"
       inkscape:export-xdpi="90"
       inkscape:export-filename="/Users/santoshsankar/Documents/programming/Bootstrap/sitepoint/src/img/logo.png"
       inkscape:connector-curvature="0"
       id="path3898"
       d="m 95.287428,863.79508 c -4.876602,0 -8.844856,3.72458 -9.169766,8.46946 l 9.420256,0 0,6.47614 -1.869737,0 0,14.10395 4.669871,0 0,-4.34104 4.714598,0 0,10.82603 -16.693445,0 c 0.978392,3.98595 4.593803,6.92795 8.928223,6.92795 l 26.328412,0 c 5.09065,0 9.18765,-4.05722 9.18765,-9.09847 l 0,-1.3909 c -0.27389,0.42398 -0.57294,0.82546 -0.89461,1.20486 -1.58068,1.85489 -3.75745,2.78182 -6.53067,2.78182 -3.78599,0 -6.58313,-1.35543 -8.40039,-4.06641 -1.82674,-2.69802 -2.74646,-5.99557 -2.74646,-9.88695 0,-3.91731 0.89495,-7.24744 2.68383,-9.98441 1.78888,-2.73691 4.11954,-4.10182 6.97796,-4.10184 2.31891,2e-5 4.20528,0.78706 5.6629,2.35657 l 0,-1.8073 3.22955,0 c -0.32491,-4.74488 -4.29316,-8.46946 -9.16976,-8.46946 l -26.328412,0 z m 28.717012,14.37861 c -2.13909,1e-5 -3.21166,2.52886 -3.21165,7.57466 -1e-5,5.05881 1.11313,7.58354 3.32795,7.58354 1.9403,0 3.1573,-1.97946 3.65897,-5.93572 l 3.02378,1.46179 0,-6.71533 -3.43531,0 c -0.25557,-1.23225 -0.6825,-2.20126 -1.28824,-2.91469 -0.60577,-0.70044 -1.29939,-1.05424 -2.0755,-1.05425 z"
       style="fill:#092950;fill-opacity:1" />
    <path
       inkscape:connector-curvature="0"
       id="path3072"
       d="m 96.986549,920.7691 c -4.876603,0 -8.844859,3.72458 -9.169769,8.46946 l 9.420258,0 0,6.47614 -1.869741,0 0,14.10395 4.669873,0 0,-4.34104 4.7146,0 0,10.82604 -16.693443,0 c 0.978388,3.98592 4.593803,6.92794 8.928222,6.92794 l 26.328401,0 c 5.09067,0 9.18766,-4.05722 9.18766,-9.09847 l 0,-1.3909 c -0.2739,0.42398 -0.57293,0.82546 -0.89461,1.20485 -1.58067,1.8549 -3.75743,2.78181 -6.53066,2.78181 -3.78599,0 -6.58313,-1.35539 -8.4004,-4.0664 -1.82674,-2.69802 -2.74645,-5.99555 -2.74645,-9.88694 0,-3.91731 0.89495,-7.24746 2.68383,-9.98441 1.78887,-2.73691 4.11954,-4.10182 6.97797,-4.10184 2.3189,2e-5 4.20527,0.78708 5.66289,2.35656 l 0,-1.80729 3.22955,0 c -0.32492,-4.74488 -4.29317,-8.46946 -9.16978,-8.46946 l -26.328401,0 z m 28.717021,14.37859 c -2.13909,3e-5 -3.21165,2.52888 -3.21165,7.57468 0,5.05882 1.11314,7.58356 3.32794,7.58355 1.94031,10e-6 3.15731,-1.97947 3.65897,-5.93571 l 3.02378,1.46177 0,-6.71533 -3.4353,0 c -0.25556,-1.23225 -0.6825,-2.20126 -1.28825,-2.91469 -0.60577,-0.70044 -1.29937,-1.05424 -2.07549,-1.05427 z"
       style="fill:#ececec;fill-opacity:1"
       inkscape:export-filename="/Users/santoshsankar/Documents/programming/Bootstrap/sitepoint/src/img/logo.png"
       inkscape:export-xdpi="90"
       inkscape:export-ydpi="90" />
  </g>
</svg>
